<?xml version="1.0" encoding="UTF-8"?>
<svg width="39px" height="42px" viewBox="0 0 39 42" version="1.1" xmlns="http://www.w3.org/2000/svg" xmlns:xlink="http://www.w3.org/1999/xlink">
    <title>Group</title>
    <g id="HI-FI" stroke="none" stroke-width="1" fill="none" fill-rule="evenodd">
        <g id="شيييييييييييخه" transform="translate(-246, -799)">
            <g id="Tab-Bar/Light/iPhone-(Compact)/No-Search" transform="translate(0, 772)">
                <g id="Tabs" transform="translate(55, 17)">
                    <g id="Group" transform="translate(191.5706, 10.6912)">
                        <g transform="translate(19, 20) rotate(-24) translate(-19, -20)translate(5.8581, 3.6653)" fill-rule="nonzero">
                            <g transform="translate(12.0531, 28.4675) rotate(-30) translate(-12.0531, -28.4675)translate(9.5324, 24.998)" fill="#000000" id="Path">
                                <path d="M5.04148069,0.447491094 L4.14067589,2.80564034 L2.8422415,2.41443568 L3.76823695,-5.93031119e-13 C3.83169187,0.116493301 3.9248016,0.217864875 4.03736235,0.29935418 C4.20700063,0.421728152 4.4260636,0.498456913 4.66649079,0.500977201 C4.67350591,0.502377361 4.68052103,0.502377361 4.68913049,0.502377361 C4.81253278,0.502657393 4.9314709,0.484175282 5.04148069,0.447491094 Z"></path>
                                <path d="M3.90975855,3.37029677 L3.22540438,6.93888605 L2.6440116,6.73034906 L2.94457255,5.79135332 L2.1218062,6.54179686 L0,5.77889903 L2.65788364,2.9642289 C2.70628166,3.02215584 2.77317574,3.06733886 2.85394186,3.09398525 L3.67239246,3.35842174 C3.75100071,3.38333033 3.83361644,3.38622668 3.90975855,3.37029677 Z"></path>
                                <path d="M4.21713962,2.88467667 C4.16635611,3.00641878 4.0376838,3.09124712 3.88907195,3.11667118 C3.8121178,3.13011659 3.72893255,3.12767197 3.64886285,3.10664823 L2.82168369,2.88345436 C2.74005621,2.86120831 2.67244872,2.82282777 2.62353455,2.77393535 C2.5341182,2.68812917 2.50327423,2.56907614 2.5521884,2.4539345 L2.56278128,2.42875491 C2.64690119,2.23147402 2.93072802,2.13564489 3.17156022,2.22120661 C3.40927687,2.30530156 3.70463124,2.39477468 3.94234789,2.45637912 C4.17196411,2.51431664 4.29253599,2.7059749 4.21713962,2.88467667 Z"></path>
                            </g>
                            <g transform="translate(2.6219, 15.2449)" id="Path">
                                <path d="M3.19435903,2.77934623 C2.5685533,3.50250003 1.43692256,3.60607492 0.665967046,3.00894113 C0.65497085,3.00052421 0.645440814,2.9930425 0.635422058,2.98322276 C0.313355697,2.72533765 0.112736212,2.38281573 0.0352741202,2.02205714 C-0.0666239619,1.54135743 0.0511575144,1.02418439 0.402791424,0.617600344 C1.02859715,-0.105553455 2.16022789,-0.209128344 2.93240521,0.388940655 C3.07926551,0.502569089 3.20144547,0.633966579 3.30016687,0.776820433 C3.34024189,0.83363465 3.37567408,0.893254507 3.40768523,0.954510988 C3.71240204,1.53457713 3.65302258,2.24931401 3.19435903,2.77934623 Z" fill="#000000"></path>
                                <path d="M3.19435903,2.77934623 C2.5685533,3.50250003 1.43692256,3.60607492 0.665967046,3.00894113 C0.65497085,3.00052421 0.645440814,2.9930425 0.635422058,2.98322276 C2.42291479,3.27360654 3.14206601,1.81490736 3.40768523,0.954744791 C3.71240204,1.53457713 3.65302258,2.24931401 3.19435903,2.77934623 Z" fill="#141414"></path>
                            </g>
                            <g transform="translate(1.3199, 12.1822)" id="Path">
                                <path d="M3.19435903,2.77934623 C2.5685533,3.50250003 1.43692256,3.60584111 0.665967046,3.00894113 C0.65497085,3.00052421 0.645440814,2.9930425 0.635422058,2.98322276 C0.313355697,2.72533765 0.112736212,2.38281573 0.0352741202,2.02205714 C-0.0666239619,1.54135743 0.0511575144,1.02418439 0.402791424,0.617600344 C1.02859715,-0.105553455 2.16022789,-0.209128344 2.93264957,0.388940655 C3.07950987,0.502569089 3.20168983,0.633966579 3.30041123,0.776820433 C3.34048625,0.83363465 3.37591844,0.893254507 3.40768523,0.954510988 C3.7126464,1.53457713 3.65302258,2.24931401 3.19435903,2.77934623 Z" fill="#000000"></path>
                                <path d="M3.19435903,2.77934623 C2.5685533,3.50250003 1.43692256,3.60584111 0.665967046,3.00894113 C0.65497085,3.00052421 0.645440814,2.9930425 0.635422058,2.98322276 C2.42291479,3.27360654 3.14206601,1.81490736 3.40768523,0.954744791 C3.7126464,1.53457713 3.65302258,2.24931401 3.19435903,2.77934623 Z" fill="#141414"></path>
                            </g>
                            <g transform="translate(-0, 9.1418)" id="Path">
                                <path d="M3.38289971,2.51250352 C2.9142174,3.33549136 1.82534964,3.63943573 0.950052449,3.18983186 C0.937590094,3.18351917 0.926593898,3.17790789 0.915108982,3.16995858 C0.547836038,2.97379756 0.282461177,2.67289263 0.134379072,2.33177352 C-0.0615975755,1.87725979 -0.0498682999,1.34769517 0.213551682,0.88499832 C0.682233989,0.0620104855 1.77110174,-0.241933885 2.6478651,0.20837139 C2.81451856,0.293943421 2.96089014,0.401259164 3.08600242,0.524239732 C3.13682928,0.573104635 3.18350202,0.625242785 3.22675372,0.679718968 C3.64167685,1.19548918 3.72646974,1.90905705 3.38289971,2.51250352 Z" fill="#000000"></path>
                                <path d="M3.38289971,2.51250352 C2.9142174,3.33549136 1.82534964,3.63943573 0.950052449,3.18983186 C0.937590094,3.18351917 0.926593898,3.17790789 0.915108982,3.16995858 C2.72557155,3.13629089 3.13878416,1.57308161 3.22699808,0.679718968 C3.64167685,1.19548918 3.72646974,1.90905705 3.38289971,2.51250352 Z" fill="#141414"></path>
                            </g>
                            <g transform="translate(0.6046, 6.036)" id="Path">
                                <path d="M2.5720871,3.23706313 C1.67577495,3.63312602 0.602790586,3.26652235 0.175893825,2.41664713 C0.169784827,2.40448935 0.164653269,2.3939682 0.160010431,2.38110902 C-0.0144625447,2.01848 -0.0403646951,1.6289636 0.05371387,1.27311489 C0.180292303,0.799429274 0.522396176,0.382324076 1.02626631,0.159509473 C1.92257846,-0.236553423 2.99556282,0.130050249 3.42319266,0.98132829 C3.50456451,1.14312022 3.55563573,1.31099103 3.57982736,1.47932945 C3.59033484,1.54666482 3.59522204,1.6147016 3.59619948,1.68273838 C3.60841747,2.32803565 3.22917089,2.94644555 2.5720871,3.23706313 Z" fill="#000000"></path>
                                <path d="M2.5720871,3.23706313 C1.67577495,3.63312602 0.602790586,3.26652235 0.175893825,2.41664713 C0.169784827,2.40448935 0.164653269,2.3939682 0.160010431,2.38110902 C1.64791792,3.36822681 2.96404039,2.34861035 3.59644384,1.68297218 C3.60841747,2.32803565 3.22917089,2.94644555 2.5720871,3.23706313 Z" fill="#141414"></path>
                            </g>
                            <g transform="translate(2.3483, 3.0765)" id="Path">
                                <path d="M2.84780533,3.08533884 C2.04141763,3.62612601 0.918095127,3.44469461 0.338962142,2.67852099 C0.330653905,2.66753223 0.323567468,2.6581801 0.31672539,2.64625612 C0.0772526793,2.3179962 -0.021713084,1.93853335 0.0039447065,1.57192968 C0.0393768934,1.08398206 0.296932238,0.615440122 0.75021987,0.311261948 C1.55660757,-0.229525228 2.67993007,-0.0480938192 3.2600405,0.719248815 C3.37024682,0.865142113 3.45210739,1.02179037 3.50757709,1.1838161 C3.53054692,1.24857963 3.54814083,1.31474598 3.56206935,1.38161374 C3.6952455,2.01568846 3.43891195,2.68904214 2.84780533,3.08533884 Z" fill="#000000"></path>
                                <path d="M2.84780533,3.08533884 C2.04141763,3.62612601 0.918095127,3.44469461 0.338962142,2.67852099 C0.330653905,2.66753223 0.323567468,2.6581801 0.31672539,2.64625612 C1.96444426,3.36964373 3.06601873,2.1440465 3.56206935,1.38184754 C3.6952455,2.01568846 3.43891195,2.68904214 2.84780533,3.08533884 Z" fill="#141414"></path>
                            </g>
                            <g transform="translate(5.3435, 1.1986)" id="Path">
                                <path d="M2.63981049,3.20557743 C1.76231406,3.63717843 0.67417938,3.31359458 0.209895553,2.48102081 C0.203297835,2.46909684 0.197433197,2.45880949 0.192545999,2.44618411 C0.00218962961,2.09056919 -0.0413064342,1.70245561 0.0368887367,1.34286604 C0.142207858,0.864504362 0.465251658,0.43383857 0.958614315,0.19115068 C1.83611075,-0.240450326 2.92424543,0.0831335267 3.38926233,0.917110119 C3.47772062,1.0756288 3.53612264,1.24116158 3.56788943,1.40879859 C3.58132922,1.47566635 3.5893931,1.54346933 3.59330286,1.6115061 C3.63435532,2.25563437 3.28321013,2.88900767 2.63981049,3.20557743 Z" fill="#000000"></path>
                                <path d="M2.63981049,3.20557743 C1.76231406,3.63717843 0.67417938,3.31359458 0.209895553,2.48102081 C0.203297835,2.46909684 0.197433197,2.45880949 0.192545999,2.44618411 C1.72272775,3.37344824 2.99168876,2.30192743 3.59354722,1.6115061 C3.63435532,2.25563437 3.28321013,2.88900767 2.63981049,3.20557743 Z" fill="#141414"></path>
                            </g>
                            <g transform="translate(8.7129, 0)" id="Path">
                                <path d="M3.42771257,2.42827225 C3.00863532,3.27510803 1.93980508,3.63586662 1.03982753,3.23302342 C1.02712082,3.22741214 1.01588026,3.22226847 1.00366226,3.21502056 C0.625637485,3.03849903 0.34291307,2.7516223 0.175037812,2.41892012 C-0.0473297052,1.97516134 -0.066878498,1.44559672 0.168684455,0.969339272 C0.588006059,0.122737298 1.65659194,-0.238255093 2.55828001,0.16528951 C2.7295763,0.241977013 2.88181253,0.341577245 3.0142556,0.457777516 C3.06777042,0.503836778 3.11737548,0.553636894 3.16404822,0.605775044 C3.60829454,1.09910014 3.73511733,1.80752432 3.42771257,2.42827225 Z" fill="#000000"></path>
                                <path d="M3.42771257,2.42827225 C3.00863532,3.27510803 1.93980508,3.63586662 1.03982753,3.23302342 C1.02712082,3.22741214 1.01588026,3.22226847 1.00366226,3.21502056 C2.80874892,3.08619491 3.12861604,1.50311235 3.16404822,0.606008847 C3.60829454,1.09910014 3.73511733,1.80752432 3.42771257,2.42827225 Z" fill="#141414"></path>
                            </g>
                            <g transform="translate(12.2984, 0.4)" id="Path">
                                <path d="M3.54548596,2.11059421 C3.31261097,3.02032309 2.34225777,3.57420326 1.37703613,3.34671259 C1.36335197,3.34343934 1.35137834,3.3406337 1.33793854,3.33572383 C0.930834934,3.23285035 0.594351339,3.00419066 0.360254546,2.70889701 C0.0496731008,2.31470455 -0.0803263709,1.79823292 0.0506505405,1.28690497 C0.283525534,0.377176085 1.25387873,-0.17670408 2.2208109,0.0512541982 C2.40456955,0.0945078201 2.57439968,0.163713615 2.72810207,0.253260303 C2.79016948,0.288564611 2.84906022,0.328077379 2.90575172,0.370629591 C3.4440766,0.77183616 3.71629354,1.44355322 3.54548596,2.11059421 Z" fill="#000000"></path>
                                <path d="M3.54548596,2.11059421 C3.31261097,3.02032309 2.34225777,3.57420326 1.37703613,3.34671259 C1.36335197,3.34343934 1.35137834,3.3406337 1.33793854,3.33572383 C3.07729238,2.87209176 3.05896538,1.25791335 2.90575172,0.370395787 C3.4440766,0.77183616 3.71629354,1.44355322 3.54548596,2.11059421 Z" fill="#141414"></path>
                            </g>
                            <g transform="translate(15.8255, 1.096)" id="Path">
                                <path d="M2.60758278,3.22066535 C1.72080067,3.63566631 0.63975243,3.29127396 0.193306876,2.45051707 C0.186953518,2.4385931 0.18133324,2.42807195 0.176690402,2.41544657 C-0.00609081037,2.0563246 -0.0412786373,1.66750961 0.0444916909,1.30979047 C0.159829568,0.833533019 0.492159045,0.409179917 0.99065326,0.175844162 C1.87743537,-0.239156806 2.95848361,0.105235547 3.4059066,0.94762906 C3.49094385,1.10778436 3.54592483,1.27448616 3.57402622,1.44235697 C3.58599986,1.50969234 3.59259757,1.57749532 3.59528553,1.64529829 C3.62216512,2.29012796 3.25758014,2.91672097 2.60758278,3.22066535 Z" fill="#000000"></path>
                                <path d="M2.60758278,3.22066535 C1.72080067,3.63566631 0.63975243,3.29127396 0.193306876,2.45051707 C0.186953518,2.4385931 0.18133324,2.42807195 0.176690402,2.41544657 C1.687079,3.37146851 2.97876548,2.32426326 3.59528553,1.64529829 C3.62216512,2.29012796 3.25758014,2.91672097 2.60758278,3.22066535 Z" fill="#141414"></path>
                            </g>
                            <g transform="translate(18.5794, 3.3027)" id="Path">
                                <path d="M2.44614813,3.28729122 C1.51977971,3.61765537 0.47905086,3.17506561 0.121552313,2.29736779 C0.116420755,2.28497621 0.112022276,2.27398745 0.108601238,2.26089446 C-0.0360598287,1.88680908 -0.0306839107,1.49682507 0.0919847638,1.14915947 C0.256438983,0.686462621 0.631287084,0.295075793 1.15226241,0.109435924 C2.07863083,-0.220928227 3.11960404,0.221661537 3.47759131,1.10076218 C3.54552336,1.26793158 3.58315479,1.43860804 3.59366226,1.60834928 C3.59879382,1.67638606 3.59806074,1.74442283 3.59366226,1.81222581 C3.55358724,2.45612027 3.12522432,3.04507094 2.44614813,3.28729122 Z" fill="#000000"></path>
                                <path d="M2.44614813,3.28729122 C1.51977971,3.61765537 0.47905086,3.17506561 0.121552313,2.29736779 C0.116420755,2.28497621 0.112022276,2.27398745 0.108601238,2.26089446 C1.51342636,3.35158714 2.90872144,2.43016809 3.5934179,1.81245961 C3.55358724,2.45612027 3.12522432,3.04507094 2.44614813,3.28729122 Z" fill="#141414"></path>
                            </g>
                            <g transform="translate(20.9989, 5.8462)" id="Path">
                                <path d="M3.08672583,2.89237876 C2.39420985,3.55895215 1.25622575,3.56573245 0.544894057,2.90617316 C0.534875301,2.89682103 0.525833984,2.88863791 0.517037027,2.87788296 C0.220628457,2.59381187 0.0532419196,2.23609273 0.0104789354,1.87042427 C-0.0452351239,1.38341187 0.121173974,0.878864211 0.51068367,0.504077421 C1.20319965,-0.162495964 2.34118375,-0.169276261 3.05373725,0.49145204 C3.18911264,0.617004445 3.29858588,0.757987872 3.3831344,0.908791041 C3.41783351,0.968878505 3.44740106,1.0310702 3.47330321,1.09466471 C3.72181724,1.69740978 3.59450573,2.40372974 3.08672583,2.89237876 Z" fill="#000000"></path>
                                <path d="M3.08672583,2.89237876 C2.39420985,3.55895215 1.25622575,3.56573245 0.544894057,2.90617316 C0.534875301,2.89682103 0.525833984,2.88863791 0.517037027,2.87788296 C2.2708081,3.3188361 3.12680086,1.9281737 3.47330321,1.09466471 C3.72181724,1.69740978 3.59450573,2.40372974 3.08672583,2.89237876 Z" fill="#141414"></path>
                            </g>
                            <g transform="translate(22.5925, 8.8952)" id="Path">
                                <path d="M3.57460237,1.45458436 C3.72512808,2.38254991 3.05289397,3.2445829 2.07154457,3.37925364 C2.05761605,3.38112407 2.04539806,3.38276069 2.03122518,3.3832283 C1.61459154,3.43372982 1.21237513,3.3418451 0.877846412,3.15152916 C0.433111377,2.8969173 0.105913459,2.46414728 0.0211205701,1.94229818 C-0.129649494,1.01433263 0.542828977,0.152299636 1.52588889,0.0173950962 C1.71282422,-0.00832327358 1.89707159,-0.00481622315 2.07472125,0.0232401803 C2.14607434,0.0337613316 2.21645,0.0494261568 2.28560385,0.0685980325 C2.94317637,0.248392818 3.46415169,0.774450382 3.57460237,1.45458436 Z" fill="#000000"></path>
                                <path d="M3.57460237,1.45458436 C3.72512808,2.38254991 3.05289397,3.2445829 2.07154457,3.37925364 C2.05761605,3.38112407 2.04539806,3.38276069 2.03122518,3.3832283 C3.44900138,2.32947654 2.78360935,0.83757729 2.28584821,0.0685980325 C2.94317637,0.248392818 3.46415169,0.774450382 3.57460237,1.45458436 Z" fill="#141414"></path>
                            </g>
                            <g transform="translate(22.6872, 12.2936)" id="Path">
                                <path d="M3.40120538,2.47974421 C2.95182751,3.31231799 1.87029055,3.63870748 0.984974596,3.20734028 C0.972512241,3.20126139 0.961271685,3.19588391 0.94954241,3.1881684 C0.577870987,2.99948909 0.305654048,2.70419544 0.149752426,2.36611578 C-0.0567316971,1.9155767 -0.0572204169,1.38577828 0.195447729,0.917703953 C0.644825603,0.0851301806 1.72636256,-0.241259313 2.61314467,0.191043104 C2.78175301,0.273108084 2.93032383,0.377384383 3.05836843,0.497793114 C3.11017273,0.545489 3.15806727,0.59692574 3.20278513,0.65046671 C3.62943754,1.1575862 3.7308469,1.86928364 3.40120538,2.47974421 Z" fill="#000000"></path>
                                <path d="M3.40120538,2.47974421 C2.95182751,3.31231799 1.87029055,3.63870748 0.984974596,3.20734028 C0.972512241,3.20126139 0.961271685,3.19588391 0.94954241,3.1881684 C2.75853882,3.11732598 3.1353418,1.54569978 3.20278513,0.65046671 C3.62943754,1.1575862 3.7308469,1.86928364 3.40120538,2.47974421 Z" fill="#141414"></path>
                            </g>
                            <g transform="translate(21.5807, 15.3211)" id="Path">
                                <path d="M3.40120538,2.47982447 C2.95182751,3.31239824 1.87029055,3.63878774 0.984974596,3.20742053 C0.972512241,3.20134165 0.961271685,3.19596417 0.94954241,3.18824866 C0.577870987,2.99956934 0.305654048,2.7042757 0.149752426,2.36619604 C-0.0567316971,1.91565696 -0.0572204169,1.38585854 0.195447729,0.917784209 C0.644825603,0.0852104366 1.72636256,-0.241179057 2.61314467,0.190889556 C2.78175301,0.272954536 2.93032383,0.377230836 3.05836843,0.497639567 C3.11017273,0.545335453 3.15806727,0.596772193 3.20278513,0.650313163 C3.62943754,1.15790026 3.73060254,1.8695977 3.40120538,2.47982447 Z" fill="#000000"></path>
                                <path d="M3.40120538,2.47982447 C2.95182751,3.31239824 1.87029055,3.63878774 0.984974596,3.20742053 C0.972512241,3.20134165 0.961271685,3.19596417 0.94954241,3.18824866 C2.75853882,3.11740624 3.1353418,1.54578004 3.20278513,0.650546966 C3.62943754,1.15790026 3.73060254,1.8695977 3.40120538,2.47982447 Z" fill="#141414"></path>
                            </g>
                            <g transform="translate(19.7855, 18.1673)" id="Path">
                                <path d="M3.16285132,2.81434355 C2.516275,3.52089731 1.38171194,3.59524678 0.628105985,2.97870731 C0.617354149,2.96982279 0.608068472,2.96234108 0.598538436,2.95228753 C0.284047232,2.68621931 0.093202143,2.33878751 0.0262475279,1.9763923 C-0.0617220395,1.49335456 0.0707210314,0.979688569 0.434328576,0.582222853 C1.0809049,-0.124330907 2.21546796,-0.198680376 2.97029572,0.418794303 C3.11373498,0.536163591 3.23224954,0.670600524 3.32657246,0.815792412 C3.36518133,0.873541842 3.39865864,0.934330716 3.42871491,0.996054804 C3.7170596,1.58360265 3.63690955,2.2964691 3.16285132,2.81434355 Z" fill="#000000"></path>
                                <path d="M3.16285132,2.81434355 C2.516275,3.52089731 1.38171194,3.59524678 0.628105985,2.97870731 C0.617354149,2.96982279 0.608068472,2.96234108 0.598538436,2.95228753 C2.37747858,3.28849677 3.13865969,1.84920327 3.42895927,0.996288607 C3.7170596,1.58360265 3.63690955,2.2964691 3.16285132,2.81434355 Z" fill="#141414"></path>
                            </g>
                            <g transform="translate(16.6121, 19.6876)" id="Path">
                                <path d="M3.16285132,2.81434355 C2.516275,3.52089731 1.38171194,3.59524678 0.628105985,2.97870731 C0.617354149,2.96982279 0.608068472,2.96234108 0.598538436,2.95228753 C0.284047232,2.68621931 0.093202143,2.33878751 0.0262475279,1.9763923 C-0.0617220395,1.49335456 0.0707210314,0.979688569 0.434328576,0.582222853 C1.0809049,-0.124330907 2.21546796,-0.198680376 2.97029572,0.418794303 C3.11373498,0.536163591 3.23224954,0.670600524 3.32681682,0.816026215 C3.36542569,0.873775646 3.398903,0.934330716 3.42895927,0.996288607 C3.71681524,1.58360265 3.63666519,2.2964691 3.16285132,2.81434355 Z" fill="#000000"></path>
                                <path d="M3.16285132,2.81434355 C2.516275,3.52089731 1.38171194,3.59524678 0.628105985,2.97870731 C0.617354149,2.96982279 0.608068472,2.96234108 0.598538436,2.95228753 C2.37747858,3.28849677 3.13865969,1.84920327 3.42895927,0.996288607 C3.71681524,1.58360265 3.63666519,2.2964691 3.16285132,2.81434355 Z" fill="#141414"></path>
                            </g>
                            <g transform="translate(13.3044, 20.9915)" id="Path">
                                <path d="M3.16285132,2.81434355 C2.516275,3.52089731 1.38171194,3.59524678 0.628105985,2.97870731 C0.617354149,2.97005659 0.608068472,2.96234108 0.598538436,2.95228753 C0.284047232,2.68621931 0.093202143,2.33878751 0.0262475279,1.9763923 C-0.0617220395,1.49335456 0.0707210314,0.979688569 0.434328576,0.582222853 C1.0809049,-0.124330907 2.21546796,-0.198680376 2.97029572,0.418794303 C3.11373498,0.536163591 3.23224954,0.670600524 3.32657246,0.815792412 C3.36518133,0.873541842 3.39865864,0.934096913 3.42871491,0.996054804 C3.71681524,1.58336885 3.63666519,2.2962353 3.16285132,2.81434355 Z" fill="#000000"></path>
                                <path d="M3.16285132,2.81434355 C2.516275,3.52089731 1.38171194,3.59524678 0.628105985,2.97870731 C0.617354149,2.97005659 0.608068472,2.96234108 0.598538436,2.95228753 C2.37747858,3.28849677 3.13865969,1.84920327 3.42895927,0.996288607 C3.71681524,1.58336885 3.63666519,2.2962353 3.16285132,2.81434355 Z" fill="#141414"></path>
                            </g>
                            <g transform="translate(4.842, 17.7601)" id="Path">
                                <path d="M3.16285132,2.81434355 C2.516275,3.52089731 1.38171194,3.59524678 0.628105985,2.97870731 C0.617354149,2.96982279 0.608068472,2.96234108 0.598538436,2.95228753 C0.284047232,2.68621931 0.093202143,2.33878751 0.0262475279,1.9763923 C-0.0617220395,1.49335456 0.0707210314,0.979688569 0.434328576,0.582222853 C1.0809049,-0.124330907 2.21546796,-0.198680376 2.97029572,0.418794303 C3.11373498,0.536163591 3.23224954,0.670600524 3.32681682,0.815792412 C3.36542569,0.873541842 3.398903,0.934330716 3.42895927,0.996054804 C3.71681524,1.58360265 3.63690955,2.2962353 3.16285132,2.81434355 Z" fill="#000000"></path>
                                <path d="M3.16285132,2.81434355 C2.516275,3.52089731 1.38171194,3.59524678 0.628105985,2.97870731 C0.617354149,2.96982279 0.608068472,2.96234108 0.598538436,2.95228753 C2.37747858,3.28849677 3.13865969,1.84920327 3.42895927,0.996288607 C3.71681524,1.58360265 3.63690955,2.2962353 3.16285132,2.81434355 Z" fill="#141414"></path>
                            </g>
                            <g transform="translate(7.633, 19.8444)" id="Path">
                                <path d="M3.16285132,2.81434355 C2.516275,3.52089731 1.38171194,3.59524678 0.628105985,2.97870731 C0.617354149,2.97005659 0.608068472,2.96234108 0.598538436,2.95228753 C0.284047232,2.68621931 0.093202143,2.33878751 0.0262475279,1.9763923 C-0.0617220395,1.49335456 0.0707210314,0.979688569 0.434328576,0.582222853 C1.0809049,-0.124330907 2.21546796,-0.198680376 2.97029572,0.418794303 C3.11373498,0.536163591 3.23224954,0.670600524 3.32681682,0.815792412 C3.36542569,0.873541842 3.398903,0.934330716 3.42895927,0.996054804 C3.71681524,1.58360265 3.63666519,2.2962353 3.16285132,2.81434355 Z" fill="#000000"></path>
                                <path d="M3.16285132,2.81434355 C2.516275,3.52089731 1.38171194,3.59524678 0.628105985,2.97870731 C0.617354149,2.97005659 0.608068472,2.96234108 0.598538436,2.95228753 C2.37747858,3.28849677 3.13865969,1.84920327 3.42895927,0.996288607 C3.71681524,1.58360265 3.63666519,2.2962353 3.16285132,2.81434355 Z" fill="#141414"></path>
                            </g>
                            <g id="Group-Copy" transform="translate(10.2613, 22.2437)">
                                <path d="M3.16285132,2.81434355 C2.516275,3.52089731 1.38171194,3.59524678 0.628105985,2.97870731 C0.617354149,2.97005659 0.608068472,2.96234108 0.598538436,2.95228753 C0.284047232,2.68621931 0.093202143,2.33878751 0.0262475279,1.9763923 C-0.0617220395,1.49335456 0.0707210314,0.979688569 0.434328576,0.582222853 C1.0809049,-0.124330907 2.21546796,-0.198680376 2.97029572,0.418794303 C3.11373498,0.536163591 3.23224954,0.670600524 3.32681682,0.815792412 C3.36542569,0.873541842 3.398903,0.934330716 3.42895927,0.996054804 C3.71681524,1.58360265 3.63666519,2.2962353 3.16285132,2.81434355 Z" id="Path" fill="#000000"></path>
                                <path d="M3.16285132,2.81434355 C2.516275,3.52089731 1.38171194,3.59524678 0.628105985,2.97870731 C0.617354149,2.97005659 0.608068472,2.96234108 0.598538436,2.95228753 C2.37747858,3.28849677 3.13865969,1.84920327 3.42895927,0.996288607 C3.71681524,1.58360265 3.63666519,2.2962353 3.16285132,2.81434355 Z" id="Path" fill="#141414"></path>
                            </g>
                        </g>
                    </g>
                </g>
            </g>
        </g>
    </g>
</svg>