<?xml version="1.0" encoding="UTF-8"?>
<svg width="30px" height="29px" viewBox="0 0 30 29" version="1.1" xmlns="http://www.w3.org/2000/svg" xmlns:xlink="http://www.w3.org/1999/xlink">
    <title>loading-process-svgrepo-com-3</title>
    <g id="loading-process-svgrepo-com-3" stroke="none" fill="none" fill-rule="evenodd" stroke-width="1">
        <g id="Capa_1" fill="#000000">
            <path d="M25.6064419,4.24688836 C22.7734002,1.50820883 19.0066026,0 15.0000376,0 C10.9933223,0 7.22659976,1.50820883 4.39355813,4.24688836 C1.56029115,6.98564049 0,10.6269508 0,14.4999637 C0,18.3731944 1.56029115,22.0144321 4.39355813,24.7531116 C7.22659976,27.4917912 10.9933974,29 15.0000376,29 C19.0064524,29 22.7734002,27.4917912 25.606517,24.7531116 C28.439784,22.0143595 30,18.3731218 30,14.4999637 C30,10.6270234 28.4397089,6.98571311 25.6064419,4.24688836 Z M15.0000376,5.62425167 C20.0629465,5.62425167 24.1818086,9.60589103 24.1818086,14.4999637 C24.1818086,19.3940364 20.0629465,23.3756757 15.0000376,23.3756757 C9.93712865,23.3756757 5.81819138,19.3940364 5.81819138,14.4999637 C5.81819138,9.60589103 9.93712865,5.62425167 15.0000376,5.62425167 Z M24.6423394,23.8210007 C22.0667172,26.3106235 18.6423694,27.6817423 15.0000376,27.6817423 C11.3576306,27.6817423 7.93328276,26.3106235 5.35773573,23.8210007 C2.78211359,21.3313778 1.36363978,18.0210297 1.36363978,14.4998911 L4.45447649,14.4998911 C4.45447649,20.1208026 9.18515124,24.6938608 15.0000376,24.6938608 C20.8148488,24.6938608 25.5454484,20.1208752 25.5454484,14.4998911 C25.5454484,8.87890692 20.8147736,4.30592132 15.0000376,4.30592132 C14.6549587,4.30592132 14.3139361,4.32254931 13.9773453,4.35398999 L13.9773453,1.35441815 C14.3159642,1.3303112 14.6570619,1.31811251 15.0000376,1.31811251 C18.6423694,1.31811251 22.0667172,2.68923125 24.6423394,5.17892671 C27.2179615,7.66869477 28.6363602,10.9789703 28.6363602,14.4998911 C28.6363602,18.0211023 27.2179615,21.3313778 24.6423394,23.8210007 Z" id="Shape" fill-rule="nonzero"></path>
        </g>
    </g>
</svg>