<?xml version="1.0" encoding="UTF-8"?>
<svg width="26px" height="30px" viewBox="0 0 26 30" version="1.1" xmlns="http://www.w3.org/2000/svg" xmlns:xlink="http://www.w3.org/1999/xlink">
    <title>kaaba-svgrepo-com copy</title>
    <g id="kaaba-svgrepo-com-copy" stroke="none" fill="none" fill-rule="nonzero">
        <path d="M25.0119269,4.40367293 L14.3701672,0.259846312 C13.4807924,-0.0866154375 12.5192076,-0.0866154375 11.6298328,0.259846312 L0.987621743,4.40367293 C0.397835793,4.63347232 0,5.27832889 0,6.00467289 L0,8.5891593 L11.9625007,4.39629019 C12.6409264,4.15898783 13.3581709,4.15898783 14.0379507,4.39629019 L25.9995486,8.5891593 L25.9995486,6.00467289 C25.9995486,5.27852765 25.6018819,4.63359256 25.0119269,4.40367293 Z M12.3777712,6.0131103 L0,10.3515249 L0,22.3948835 C0,23.1858914 0.470339057,23.8703769 1.13116092,24.0422893 L12.059999,26.8793709 C12.6791051,27.0402097 13.3208949,27.0402097 13.940001,26.8793709 L24.8688391,24.0422893 C25.5296609,23.8709042 26,23.1858914 26,22.3948835 L26,10.3509975 L13.6231315,6.0131103 C13.2150831,5.86967421 12.7840142,5.86967421 12.3777712,6.0131103 Z M5.77767747,12.1344566 C5.77767747,12.3248259 5.66889464,12.4914649 5.51181403,12.541562 L1.90076561,13.6922148 C1.67101266,13.7649875 1.44441937,13.5630169 1.44441937,13.2851094 L1.44441937,12.410782 C1.44441937,12.2204128 1.5532022,12.0537738 1.71028281,12.0036767 L5.32133123,10.8530239 C5.55108418,10.7797238 5.77767747,10.9816945 5.77767747,11.2601292 L5.77767747,12.1344566 Z M12.2775646,10.0630707 C12.2775646,10.2534399 12.1687818,10.4200789 12.0117012,10.470176 L7.67844308,11.8507485 C7.44869013,11.9240485 7.22209684,11.7220779 7.22209684,11.4436431 L7.22209684,10.5693157 C7.22209684,10.3789465 7.33087967,10.2123075 7.48796028,10.1622103 L11.8212184,8.78163789 C12.0509713,8.70833782 12.2775646,8.9103085 12.2775646,9.18874328 L12.2775646,10.0630707 L12.2775646,10.0630707 Z M20.2218711,11.2601292 C20.2218711,10.9816945 20.4484644,10.7797238 20.6782174,10.8530239 L24.2892658,12.0036767 C24.4463464,12.0537738 24.5551293,12.2204128 24.5551293,12.410782 L24.5551293,13.2851094 C24.5551293,13.5635442 24.328536,13.7655149 24.098783,13.6922148 L20.4877346,12.541562 C20.3306644,12.4914433 20.2217579,12.3246795 20.2218711,12.1344566 L20.2218711,11.2601292 L20.2218711,11.2601292 Z M13.7219839,9.18927062 C13.7219839,8.91083584 13.9485773,8.70886516 14.1783302,8.78216523 L18.5115883,10.1627376 C18.6686689,10.2128348 18.7774518,10.3794738 18.7774518,10.569843 L18.7774518,11.4441704 C18.7774518,11.7226052 18.5508585,11.9245759 18.3211055,11.8512758 L13.9878474,10.4707034 C13.8307772,10.4205847 13.7218708,10.2538208 13.7219839,10.063598 L13.7219839,9.18927062 Z" id="Shape" fill="#000000"></path>
    </g>
</svg>